This is KSHOWNOW version




Format : AVI

Format/Info : Audio Video Interleave

File size : 1.74 GiB

Duration : 1h 33mn

Overall bit rate : 2 646 Kbps

Writing application : Kirara Encoder

Writing library : VirtualDub build 34807/release



Video

ID : 0

Format : AVC

Format/Info : Advanced Video Codec

Format profile : High@L4.1

Format settings, CABAC : Yes

Format settings, ReFrames : 4 frames

Codec ID : H264

Duration : 1h 33mn

Bit rate : 2 442 Kbps

Width : 1 280 pixels

Height : 720 pixels

Display aspect ratio : 16:9

Frame rate : 29.970 fps

Color space : YUV

Chroma subsampling : 4:2:0

Bit depth : 8 bits

Scan type : Progressive

Bits/(Pixel*Frame) : 0.088

Stream size : 1.60 GiB (92%)

Writing library : x264 core 125 r2200bm 999b753



Audio

ID : 1

Format : AC-3

Format/Info : Audio Coding 3

Mode extension : CM (complete main)

Codec ID : 2000

Duration : 1h 33mn

Bit rate mode : Constant

Bit rate : 192 Kbps

Channel(s) : 2 channels

Channel positions : Front: L R

Sampling rate : 48.0 KHz

Bit depth : 16 bits

Compression mode : Lossy

Stream size : 129 MiB (7%)

Alignment : Aligned on interleaves

Interleave, duration : 32 ms (0.96 video frame)

Interleave, preload duration : 512 ms